<svg width="268" height="426" viewBox="0 0 268 426" fill="none" xmlns="http://www.w3.org/2000/svg">
<path d="M134.017 0H133.409C59.846 0 0 59.826 0 133.361C0 181.563 21.952 245.178 65.246 322.442C97.344 379.723 129.892 423.594 130.218 424.03C131.124 425.247 132.552 425.964 134.065 425.964C134.108 425.964 134.152 425.964 134.195 425.962C135.756 425.919 137.197 425.12 138.063 423.819C138.384 423.333 170.7 374.532 202.58 314.843C245.61 234.28 267.428 173.219 267.428 133.361C267.425 59.825 207.578 0 134.017 0ZM195.597 136.62C195.597 170.744 167.836 198.504 133.712 198.504C99.589 198.504 71.828 170.743 71.828 136.62C71.828 102.497 99.589 74.736 133.712 74.736C167.836 74.736 195.597 102.497 195.597 136.62Z" fill="#FF1724"/>
</svg>
