<svg width="64" height="64" viewBox="0 0 64 64" fill="none" xmlns="http://www.w3.org/2000/svg">
<g clip-path="url(#clip0_13124_10)">
<path d="M62 14H2C1.46957 14 0.960859 14.2107 0.585786 14.5858C0.210714 14.9609 0 15.4696 0 16L0 48C0 48.5304 0.210714 49.0391 0.585786 49.4142C0.960859 49.7893 1.46957 50 2 50H62C62.5304 50 63.0391 49.7893 63.4142 49.4142C63.7893 49.0391 64 48.5304 64 48V16C64 15.4696 63.7893 14.9609 63.4142 14.5858C63.0391 14.2107 62.5304 14 62 14ZM50.18 46H13.82C13.4032 43.5471 12.2342 41.2844 10.4749 39.5251C8.71556 37.7658 6.45289 36.5968 4 36.18V27.82C6.45289 27.4032 8.71556 26.2342 10.4749 24.4749C12.2342 22.7156 13.4032 20.4529 13.82 18H50.18C50.5968 20.4529 51.7658 22.7156 53.5251 24.4749C55.2844 26.2342 57.5471 27.4032 60 27.82V36.18C57.5471 36.5968 55.2844 37.7658 53.5251 39.5251C51.7658 41.2844 50.5968 43.5471 50.18 46ZM60 23.72C58.6243 23.3609 57.3691 22.6416 56.3638 21.6362C55.3584 20.6309 54.6391 19.3757 54.28 18H60V23.72ZM9.72 18C9.36088 19.3757 8.64161 20.6309 7.63624 21.6362C6.63087 22.6416 5.37571 23.3609 4 23.72V18H9.72ZM4 40.28C5.37571 40.6391 6.63087 41.3584 7.63624 42.3638C8.64161 43.3691 9.36088 44.6243 9.72 46H4V40.28ZM54.28 46C54.6391 44.6243 55.3584 43.3691 56.3638 42.3638C57.3691 41.3584 58.6243 40.6391 60 40.28V46H54.28Z" fill="black"/>
<path d="M15.0201 1.41989C14.7923 1.28822 14.5408 1.20278 14.28 1.16846C14.0192 1.13414 13.7541 1.15162 13.5001 1.21989C12.9877 1.353 12.549 1.68384 12.2801 2.13989L8.28008 8.99989C8.01486 9.46136 7.94383 10.0093 8.0826 10.5231C8.22138 11.037 8.5586 11.4747 9.02008 11.7399C9.48155 12.0051 10.0295 12.0761 10.5433 11.9374C11.0572 11.7986 11.4949 11.4614 11.7601 10.9999L14.7601 5.87989L24.9001 11.7399C25.3616 12.0051 25.9095 12.0761 26.4233 11.9374C26.9372 11.7986 27.3749 11.4614 27.6401 10.9999C27.9053 10.5384 27.9763 9.99048 27.8375 9.47663C27.6988 8.96278 27.3616 8.5251 26.9001 8.25989L15.0201 1.41989Z" fill="black"/>
<path d="M48.9802 62.5799C49.2831 62.7596 49.628 62.8562 49.9802 62.8599C50.1523 62.889 50.3281 62.889 50.5002 62.8599C51.0126 62.7268 51.4513 62.3959 51.7202 61.9399L55.7202 55.0799C55.9854 54.6184 56.0564 54.0705 55.9177 53.5566C55.7789 53.0428 55.4417 52.6051 54.9802 52.3399C54.5187 52.0747 53.9708 52.0036 53.4569 52.1424C52.9431 52.2812 52.5054 52.6184 52.2402 53.0799L49.2802 58.1999L39.1402 52.3399C38.6787 52.0747 38.1308 52.0036 37.6169 52.1424C37.1031 52.2812 36.6654 52.6184 36.4002 53.0799C36.135 53.5414 36.0639 54.0893 36.2027 54.6032C36.3415 55.117 36.6787 55.5547 37.1402 55.8199L48.9802 62.5799Z" fill="black"/>
<path d="M32 20C29.6266 20 27.3066 20.7038 25.3332 22.0224C23.3598 23.3409 21.8217 25.2151 20.9135 27.4078C20.0052 29.6005 19.7676 32.0133 20.2306 34.3411C20.6936 36.6689 21.8365 38.8071 23.5147 40.4853C25.193 42.1635 27.3311 43.3064 29.6589 43.7694C31.9867 44.2324 34.3995 43.9948 36.5922 43.0866C38.7849 42.1783 40.6591 40.6402 41.9776 38.6668C43.2962 36.6935 44 34.3734 44 32C44 28.8174 42.7357 25.7652 40.4853 23.5147C38.2349 21.2643 35.1826 20 32 20ZM32 40C30.4178 40 28.871 39.5308 27.5554 38.6518C26.2399 37.7727 25.2145 36.5233 24.609 35.0615C24.0035 33.5997 23.845 31.9911 24.1537 30.4393C24.4624 28.8874 25.2243 27.462 26.3432 26.3431C27.462 25.2243 28.8874 24.4624 30.4393 24.1537C31.9911 23.845 33.5997 24.0035 35.0615 24.609C36.5233 25.2145 37.7727 26.2398 38.6518 27.5554C39.5308 28.871 40 30.4177 40 32C40 34.1217 39.1571 36.1566 37.6569 37.6569C36.1566 39.1571 34.1217 40 32 40Z" fill="black"/>
</g>
<defs>
<clipPath id="clip0_13124_10">
<rect width="64" height="64" fill="white"/>
</clipPath>
</defs>
</svg>
