<svg width="25" height="25" viewBox="0 0 25 25" fill="none" xmlns="http://www.w3.org/2000/svg">
<path d="M5.95238 0C2.67183 0 0 2.67183 0 5.95238V19.0476C0 22.3282 2.67183 25 5.95238 25H19.0476C22.3282 25 25 22.3282 25 19.0476V5.95238C25 2.67183 22.3282 0 19.0476 0H5.95238ZM5.95238 1.19048H19.0476C21.6849 1.19048 23.8095 3.31508 23.8095 5.95238V19.0476C23.8095 21.6849 21.6849 23.8095 19.0476 23.8095H5.95238C3.31508 23.8095 1.19048 21.6849 1.19048 19.0476V5.95238C1.19048 3.31508 3.31508 1.19048 5.95238 1.19048ZM8.3624 4.19341C7.14494 4.1408 6.22091 4.60339 5.63965 5.15951C5.34902 5.43756 5.13919 5.73509 4.99558 6.01283C4.85198 6.29058 4.76074 6.51957 4.76074 6.81734C4.76074 6.79081 4.7542 6.93003 4.75028 7.0917C4.74635 7.25338 4.74707 7.47132 4.7619 7.73461C4.79164 8.26119 4.88089 8.97348 5.11765 9.81794C5.59118 11.5069 6.65741 13.7224 8.97042 16.0354C11.2834 18.3484 13.4988 19.4145 15.1879 19.8882C16.0324 20.125 16.7446 20.2141 17.2712 20.2439C17.5345 20.2588 17.7513 20.2594 17.9129 20.2555C18.0746 20.2516 18.2149 20.2451 18.1885 20.2451C18.4862 20.2451 18.7152 20.1538 18.993 20.0102C19.2707 19.8666 19.5682 19.6568 19.8463 19.3662C20.4024 18.7849 20.865 17.8609 20.8124 16.6434C20.7874 16.0628 20.4651 15.5486 19.9893 15.2437C19.6216 15.0081 19.0509 14.6424 18.3059 14.166C17.4416 13.6137 16.336 13.5743 15.4343 14.0683L15.4855 14.0427L14.7845 14.3438L14.7333 14.3799C14.5629 14.4995 14.3519 14.5217 14.1602 14.4415C13.6231 14.2169 12.7863 13.7757 12.0082 12.9976C11.2302 12.2195 10.7889 11.3827 10.5643 10.8457C10.4841 10.6539 10.5063 10.4429 10.6259 10.2725L10.662 10.2214L10.9631 9.52032L10.9375 9.57148C11.4314 8.67002 11.393 7.56451 10.8398 6.69992C10.3634 5.95495 9.99773 5.38418 9.76214 5.01651C9.45723 4.54074 8.94304 4.21837 8.3624 4.19341ZM8.31124 5.38272C8.47822 5.3899 8.65062 5.48759 8.76 5.65825C8.99583 6.0263 9.36172 6.59734 9.8377 7.34166C10.1536 7.83539 10.1758 8.48428 9.89351 8.99949L9.87956 9.02507L9.5924 9.69587L9.65169 9.58775C9.2999 10.0888 9.2292 10.7395 9.46568 11.3049C9.73395 11.9464 10.247 12.9197 11.1665 13.8393C12.0861 14.7588 13.0594 15.2719 13.7009 15.5401C14.2664 15.7766 14.917 15.7059 15.4181 15.3541L15.3099 15.4134L15.9807 15.1263L16.0063 15.1123C16.5213 14.8301 17.1702 14.8537 17.6642 15.1693V15.1681C18.4085 15.6441 18.9795 16.01 19.3476 16.2458C19.5182 16.3552 19.6159 16.5276 19.6231 16.6946C19.6622 17.5985 19.3482 18.1645 18.986 18.5431C18.8049 18.7323 18.6085 18.8697 18.4466 18.9535C18.2846 19.0372 18.1297 19.0546 18.1885 19.0546C18.0793 19.0546 18.0218 19.0618 17.885 19.0651C17.7483 19.0684 17.565 19.0686 17.3386 19.0558C16.886 19.0301 16.2612 18.9529 15.5087 18.7419C14.0039 18.3198 11.9866 17.3682 9.81213 15.1937C7.63764 13.0192 6.68581 11.0017 6.26395 9.49707C6.05302 8.74473 5.97562 8.11978 5.95006 7.66718C5.93728 7.44088 5.93744 7.25752 5.94076 7.12077C5.94409 6.98402 5.95122 6.9266 5.95122 6.81734C5.95122 6.87612 5.96862 6.72121 6.05236 6.55924C6.1361 6.39728 6.27347 6.2009 6.46275 6.01981C6.84131 5.65763 7.40727 5.34366 8.31124 5.38272Z" fill="black"/>
</svg>
