<svg width="64" height="64" viewBox="0 0 64 64" fill="none" xmlns="http://www.w3.org/2000/svg">
<path d="M42.4117 47.8233V57.698L47.1428 59.6671V45.2355C45.6567 46.2548 44.0716 47.1217 42.4117 47.8233ZM16.8575 45.2355V59.5686L21.5886 57.5995V47.8233C19.9287 47.1218 18.3436 46.2548 16.8575 45.2355ZM32.0001 49.924C29.766 49.9252 27.5406 49.6472 25.3755 49.0964V64L32.0001 61.2429L38.6247 63.9999V49.0964C36.4596 49.6472 34.2342 49.9252 32.0001 49.924ZM32.0001 0C19.2801 0 8.93164 10.3485 8.93164 23.0686C8.93164 35.7887 19.2801 46.137 32.0001 46.137C44.7201 46.137 55.0687 35.7886 55.0687 23.0685C55.0687 10.3484 44.7202 0 32.0001 0ZM32.0001 41.2624C21.916 41.2624 13.7119 33.0583 13.7119 22.9742C13.7119 12.89 21.916 4.68587 32.0001 4.68587C42.0842 4.68587 50.2883 12.89 50.2883 22.9742C50.2883 33.0584 42.0843 41.2624 32.0001 41.2624ZM32.0001 8.47273C24.0041 8.47273 17.4987 14.978 17.4987 22.9742C17.4987 30.9704 24.0041 37.4754 32.0001 37.4754C39.9961 37.4754 46.5014 30.9702 46.5014 22.9741C46.5014 14.978 39.9962 8.47273 32.0001 8.47273ZM37.9602 31.4374L32.0001 28.3041L26.0401 31.4374L27.1784 24.801L22.3566 20.101L29.0202 19.1326L32.0001 13.0943L34.9801 19.1326L41.6437 20.101L36.822 24.801L37.9602 31.4374Z" fill="black"/>
</svg>
