<svg width="64" height="64" viewBox="0 0 64 64" fill="none" xmlns="http://www.w3.org/2000/svg">
<g clip-path="url(#clip0_13124_17)">
<path d="M32 0C14.3261 0 0 14.3261 0 32C0 49.6739 14.3261 64 32 64C49.6739 64 64 49.6739 64 32C64 14.3261 49.6739 0 32 0ZM32 59C17.0879 59 5 46.9121 5 32C5 17.0879 17.0879 5 32 5C46.9121 5 59 17.0879 59 32C59 46.9121 46.9121 59 32 59Z" fill="black"/>
<path d="M43.7851 21.2011L40.8359 23.9042C42.877 26.1309 44 29.0059 44 32C44 38.6172 38.6172 44 32 44C25.3828 44 20 38.6172 20 32C20 25.3828 25.3828 20 32 20V16C23.1777 16 16 23.1777 16 32C16 40.8223 23.1777 48 32 48C40.8223 48 48 40.8223 48 32C48 28.002 46.5039 24.168 43.7851 21.2011Z" fill="black"/>
<path d="M34 32.7988L38.3985 17.3359L30 31.2011L31 33.9999L34 32.7988Z" fill="black"/>
</g>
<defs>
<clipPath id="clip0_13124_17">
<rect width="64" height="64" fill="white"/>
</clipPath>
</defs>
</svg>
