<svg width="16" height="16" viewBox="0 0 16 16" fill="none" xmlns="http://www.w3.org/2000/svg">
<path d="M15.6979 0.219953C15.4249 -0.0344475 14.9963 -0.0708476 14.553 0.124753H14.5523C14.0861 0.330354 1.35691 6.33197 0.838721 6.57717C0.74447 6.61317 -0.078672 6.95077 0.00611675 7.70278C0.081808 8.38078 0.743379 8.66158 0.824165 8.69398L4.06033 9.91198C4.27503 10.6976 5.06651 13.596 5.24155 14.2152C5.35072 14.6012 5.52867 15.1084 5.84053 15.2128C6.11418 15.3288 6.38638 15.2228 6.56251 15.0708L8.54103 13.0536L11.735 15.7916L11.811 15.8416C12.0279 15.9472 12.2357 16 12.434 16C12.5872 16 12.7343 15.9684 12.8747 15.9052C13.3533 15.6892 13.5447 15.188 13.5647 15.1312L15.9504 1.50036C16.096 0.772355 15.8936 0.401954 15.6979 0.219953ZM6.9144 10.3992L5.8227 13.5992L4.731 9.59918L13.1007 2.79916L6.9144 10.3992Z" fill="black"/>
</svg>
